<svg width="24" height="24" viewBox="0 0 24 24" fill="none" xmlns="http://www.w3.org/2000/svg">
<g clip-path="url(#clip0_193_475)">
<path d="M5.77714 10.0284L10.1314 3.06845C10.3002 2.79335 10.5373 2.56665 10.8197 2.41043C11.1021 2.25421 11.4201 2.1738 11.7429 2.17702C11.997 2.16785 12.2504 2.20971 12.4881 2.30015C12.7258 2.39059 12.943 2.52776 13.1268 2.70355C13.3106 2.87935 13.4573 3.0902 13.5582 3.32366C13.6591 3.55711 13.7122 3.80842 13.7143 4.06273V9.05131H21.24C21.5181 9.06032 21.7911 9.1281 22.0411 9.25018C22.2911 9.37226 22.5125 9.54588 22.6906 9.75962C22.8687 9.97336 22.9996 10.2224 23.0746 10.4903C23.1496 10.7582 23.167 11.039 23.1257 11.3142L21.7543 20.1599C21.6958 20.6326 21.4666 21.0677 21.1099 21.3834C20.7532 21.6991 20.2935 21.8736 19.8171 21.8742H8.57143C8.03609 21.8763 7.5077 21.753 7.02857 21.5142L5.79429 20.897M5.77714 10.0284V20.8456H1.71429C1.48696 20.8456 1.26894 20.7553 1.10819 20.5945C0.947449 20.4338 0.857143 20.2158 0.857143 19.9884V10.8856C0.857143 10.6583 0.947449 10.4402 1.10819 10.2795C1.26894 10.1188 1.48696 10.0284 1.71429 10.0284H5.77714Z" stroke="#7041EE" stroke-width="1.71429" stroke-linecap="round" stroke-linejoin="round"/>
</g>
<defs>
<clipPath id="clip0_193_475">
<rect width="24" height="24" fill="white"/>
</clipPath>
</defs>
</svg>
