<svg width="24" height="24" viewBox="0 0 24 24" fill="none" xmlns="http://www.w3.org/2000/svg">
<g clip-path="url(#clip0_193_461)">
<path d="M24.5021 18.8567V17.1424H22.5539C22.4343 16.6058 22.2039 16.0956 21.8752 15.6398L23.2568 14.3627L21.9456 13.1507L20.5641 14.4278C20.0709 14.124 19.519 13.9109 18.9386 13.8004V11.9995H17.0841V13.8004C16.5037 13.9109 15.9518 14.124 15.4586 14.4278L14.077 13.1507L12.7659 14.3627L14.1475 15.6398C13.8188 16.0956 13.5884 16.6058 13.4688 17.1424H11.5206V18.8567H13.4688C13.5884 19.3932 13.8188 19.9034 14.1475 20.3592L12.7659 21.6364L14.077 22.8484L15.4586 21.5712C15.9518 21.8751 16.5037 22.0881 17.0841 22.1987V23.9995H18.9386V22.1987C19.519 22.0881 20.0709 21.8751 20.5641 21.5712L21.9456 22.8484L23.2568 21.6364L21.8752 20.3592C22.2039 19.9034 22.4343 19.3932 22.5539 18.8567H24.5021ZM18.0113 20.5709C17.4612 20.5709 16.9234 20.4201 16.4659 20.1376C16.0084 19.855 15.6519 19.4534 15.4414 18.9836C15.2308 18.5137 15.1757 17.9967 15.2831 17.4979C15.3904 16.999 15.6553 16.5409 16.0444 16.1812C16.4334 15.8216 16.9291 15.5767 17.4687 15.4775C18.0083 15.3783 18.5676 15.4292 19.0759 15.6238C19.5842 15.8184 20.0186 16.148 20.3243 16.5709C20.6299 16.9938 20.7931 17.4909 20.7931 17.9995C20.7923 18.6813 20.499 19.3349 19.9775 19.817C19.456 20.2991 18.7489 20.5703 18.0113 20.5709Z" fill="#7041EE"/>
<path d="M9.66614 21.1431L6.66742 19.6646C5.33159 19.0077 4.21445 18.027 3.43589 16.8277C2.65733 15.6284 2.24674 14.2558 2.24817 12.8571V1.71429H20.7931V10.2857H22.6476V1.71429C22.6471 1.25977 22.4515 0.823996 22.1039 0.502604C21.7562 0.181211 21.2848 0.000453837 20.7931 0H2.24817C1.75648 0.000453837 1.28507 0.181211 0.937393 0.502604C0.589715 0.823996 0.394174 1.25977 0.393683 1.71429V12.8571C0.391617 14.5666 0.893208 16.2443 1.84462 17.7101C2.79602 19.176 4.16132 20.3746 5.79396 21.1774L9.66614 23.0863V21.1431Z" fill="#7041EE"/>
</g>
<defs>
<clipPath id="clip0_193_461">
<rect width="24" height="24" fill="white"/>
</clipPath>
</defs>
</svg>
